<svg xmlns="http://www.w3.org/2000/svg" viewBox="0 0 512 512">
  <defs>
    <linearGradient id="bg" x1="0" y1="0" x2="1" y2="1">
      <stop offset="0%" stop-color="#23396b"/>
      <stop offset="100%" stop-color="#121f3b"/>
    </linearGradient>
    <linearGradient id="snake" x1="0" y1="0" x2="1" y2="1">
      <stop offset="0%" stop-color="#ff9f7a"/>
      <stop offset="100%" stop-color="#ff4d6d"/>
    </linearGradient>
  </defs>
  <rect width="512" height="512" rx="118" fill="url(#bg)"/>
  <circle cx="128" cy="132" r="46" fill="#ffd166" opacity="0.22"/>
  <circle cx="392" cy="106" r="36" fill="#7bdff6" opacity="0.18"/>
  <rect x="92" y="296" width="106" height="106" rx="30" fill="#ffffff"/>
  <text x="145" y="369" font-size="64" text-anchor="middle" font-family="Arial, sans-serif" font-weight="700" fill="#182033">7</text>
  <g fill="url(#snake)">
    <rect x="232" y="250" width="76" height="76" rx="26"/>
    <rect x="304" y="250" width="76" height="76" rx="26"/>
    <rect x="304" y="178" width="76" height="76" rx="26"/>
    <rect x="232" y="178" width="76" height="76" rx="28"/>
  </g>
  <circle cx="254" cy="208" r="11.5" fill="#fff"/>
  <circle cx="286" cy="208" r="11.5" fill="#fff"/>
  <circle cx="256" cy="210" r="4.6" fill="#1f2333"/>
  <circle cx="288" cy="210" r="4.6" fill="#1f2333"/>
  <path d="M259 235c12 11 27 11 39 0" stroke="#1f2333" stroke-width="8" stroke-linecap="round" fill="none"/>
</svg>
