<svg xmlns="http://www.w3.org/2000/svg" viewBox="0 0 192 192">
  <defs>
    <linearGradient id="bg" x1="0" y1="0" x2="1" y2="1">
      <stop offset="0%" stop-color="#23396b"/>
      <stop offset="100%" stop-color="#121f3b"/>
    </linearGradient>
    <linearGradient id="snake" x1="0" y1="0" x2="1" y2="1">
      <stop offset="0%" stop-color="#ff9f7a"/>
      <stop offset="100%" stop-color="#ff4d6d"/>
    </linearGradient>
  </defs>
  <rect width="192" height="192" rx="44" fill="url(#bg)"/>
  <circle cx="44" cy="50" r="18" fill="#ffd166" opacity="0.22"/>
  <circle cx="146" cy="38" r="14" fill="#7bdff6" opacity="0.18"/>
  <rect x="36" y="110" width="38" height="38" rx="12" fill="#ffffff"/>
  <text x="55" y="136" font-size="22" text-anchor="middle" font-family="Arial, sans-serif" font-weight="700" fill="#182033">7</text>
  <g fill="url(#snake)">
    <rect x="88" y="94" width="28" height="28" rx="10"/>
    <rect x="114" y="94" width="28" height="28" rx="10"/>
    <rect x="114" y="68" width="28" height="28" rx="10"/>
    <rect x="88" y="68" width="28" height="28" rx="11"/>
  </g>
  <circle cx="96" cy="79" r="4.4" fill="#fff"/>
  <circle cx="108" cy="79" r="4.4" fill="#fff"/>
  <circle cx="97" cy="80" r="1.8" fill="#1f2333"/>
  <circle cx="109" cy="80" r="1.8" fill="#1f2333"/>
  <path d="M99 89c4 4 10 4 14 0" stroke="#1f2333" stroke-width="3" stroke-linecap="round" fill="none"/>
</svg>
